# File created by Blade
# Date/Time:  Wed Apr 08 16:19:59 2015
# Frame Rate: 120.000 fps
#------------------------------------------------------
:FULLY-SPECIFIED
:DEGREES
1472
root -19.098067 29.024046 -0.899939 386.588700 -73.557596 -455.444898
Spine -64.719766 -18.048145 6.397886
Head -91.218124 2.124988 11.584290
LeftShoulder -16.166578 -1.955973 48.439440
LeftArm 196.905703 -60.698222 -180.644021
LeftForeArm -14.839403 0.000000 28.897293
LeftHand 16.490429 -0.000000 105.125458
LeftHandThumb1 -26.253704 0.000000 33.147579
RightShoulder -25.888845 48.588221 -58.915121
RightArm 12.679666 67.167107 -8.977220
RightForeArm 30.605922 -0.000000 14.940291
RightHand 17.801286 0.000000 -107.823079
RightHandThumb1 -24.326973 -0.000000 -32.862282
LeftUpLeg 16.765557 -2.155642 23.266415
LeftLeg 37.000804 -0.000000 -0.000000
LeftFoot 3.494372 -7.095939 -9.418769
LeftToeBase -37.295831 -0.000000 0.000000
RightUpLeg -83.114555 -13.038925 4.764914
RightLeg 123.665406 -0.000000 -0.000000
RightFoot 45.861626 1.250628 1.064600
RightToeBase 37.476941 -0.000000 -0.000000
1473
root -19.088410 29.028520 -0.921153 386.631389 -73.519357 -455.438978
Spine -64.876094 -18.097721 6.373314
Head -91.241019 2.023390 11.658195
LeftShoulder -16.117219 -2.027970 48.238764
LeftArm 196.487377 -60.579769 -179.770835
LeftForeArm -14.460750 -0.000000 28.649214
LeftHand 16.370048 -0.000000 105.168658
LeftHandThumb1 -26.253704 0.000000 33.147579
RightShoulder -26.162729 48.693678 -58.809930
RightArm 14.709944 67.491903 -7.157500
RightForeArm 29.994542 0.000000 14.883810
RightHand 17.741452 -0.000000 -107.808619
RightHandThumb1 -24.326973 -0.000000 -32.862282
LeftUpLeg 16.718278 -2.218116 23.296484
LeftLeg 36.914893 -0.000000 -0.000000
LeftFoot 3.592096 -7.082295 -9.516390
LeftToeBase -37.358680 -0.000000 0.000000
RightUpLeg -84.836297 -13.340792 4.855765
RightLeg 123.004065 -0.000000 -0.000000
RightFoot 45.727397 0.983884 0.876275
RightToeBase 37.447973 -0.000000 -0.000000
1474
root -19.081186 29.033786 -0.939105 386.624501 -73.528829 -455.415813
Spine -64.978807 -18.118235 6.303239
Head -91.263757 1.950137 11.757875
LeftShoulder -16.081867 -2.219965 48.023439
LeftArm 196.053955 -60.485132 -178.755619
LeftForeArm -14.277734 -0.000000 28.312207
LeftHand 16.473399 -0.000000 105.270649
LeftHandThumb1 -26.253704 0.000000 33.147579
RightShoulder -26.404145 48.874528 -58.854569
RightArm 15.919293 67.438375 -6.028310
RightForeArm 29.683936 -0.000000 14.879780
RightHand 17.717339 -0.000000 -107.927550
RightHandThumb1 -24.326973 -0.000000 -32.862282
LeftUpLeg 16.725474 -2.244915 23.299624
LeftLeg 36.821522 -0.000000 -0.000000
LeftFoot 3.720815 -7.076438 -9.626959
LeftToeBase -37.507270 -0.000000 0.000000
RightUpLeg -86.506951 -13.618543 4.926208
RightLeg 122.321413 -0.000000 -0.000000
RightFoot 45.612442 0.903842 0.677111
RightToeBase 37.435786 -0.000000 -0.000000
1475
root -19.069914 29.036904 -0.960108 386.789851 -73.543741 -455.498682
Spine -65.162889 -18.127248 6.288089
Head -91.262282 1.910514 11.864613
LeftShoulder -16.087680 -2.351682 47.799298
LeftArm 195.528317 -60.375695 -177.653149
LeftForeArm -13.952927 -0.000000 27.984253
LeftHand 16.416733 -0.000000 105.250571
LeftHandThumb1 -26.253704 0.000000 33.147579
RightShoulder -26.356855 48.820427 -58.713404
RightArm 16.279083 67.449271 -5.688642
RightForeArm 29.576939 0.000000 14.903134
RightHand 17.635865 -0.000000 -108.038375
RightHandThumb1 -24.326973 -0.000000 -32.862282
LeftUpLeg 16.664517 -2.222456 23.337362
LeftLeg 36.734884 -0.000000 -0.000000
LeftFoot 3.836986 -7.061979 -9.742766
LeftToeBase -37.523063 -0.000000 0.000000
RightUpLeg -88.242322 -13.863116 5.101565
RightLeg 121.559822 -0.000000 -0.000000
RightFoot 45.651104 0.832556 0.391042
RightToeBase 37.315920 -0.000000 -0.000000
1476
root -19.065149 29.042077 -0.982825 386.836163 -73.573754 -455.527639
Spine -65.257318 -18.157960 6.202361
Head -91.272382 1.869627 12.017859
LeftShoulder -16.022843 -2.517544 47.624672
LeftArm 195.265936 -60.305918 -176.805769
LeftForeArm -13.730349 -0.000000 27.628208
LeftHand 16.311800 -0.000000 105.405831
LeftHandThumb1 -26.253704 0.000000 33.147579
RightShoulder -26.180143 48.777662 -58.392931
RightArm 16.475444 67.305961 -5.772926
RightForeArm 29.686268 -0.000000 14.660548
RightHand 17.664143 -0.000000 -108.118853
RightHandThumb1 -24.326973 -0.000000 -32.862282
LeftUpLeg 16.671713 -2.197552 23.380885
LeftLeg 36.664864 -0.000000 -0.000000
LeftFoot 3.942938 -7.107075 -9.817269
LeftToeBase -37.592435 -0.000000 0.000000
RightUpLeg -89.861291 -14.072566 5.187328
RightLeg 120.810606 -0.000000 -0.000000
RightFoot 45.576655 0.999166 0.233829
RightToeBase 37.358418 -0.000000 -0.000000
1477
root -19.055483 29.049392 -1.001633 387.194408 -73.585521 -455.844317
Spine -65.401472 -18.103489 6.217891
Head -91.291729 1.773378 12.076303
LeftShoulder -15.980774 -2.593368 47.374715
LeftArm 195.021703 -60.302886 -176.013885
LeftForeArm -13.587097 -0.000000 27.198331
LeftHand 16.322792 -0.000000 105.562203
LeftHandThumb1 -26.253704 0.000000 33.147579
RightShoulder -25.969085 48.704018 -58.113282
RightArm 16.587248 67.133566 -5.992572
RightForeArm 29.895090 -0.000000 14.335731
RightHand 17.717457 -0.000000 -108.208705
RightHandThumb1 -24.326973 -0.000000 -32.862282
LeftUpLeg 16.664445 -2.153596 23.483742
LeftLeg 36.575015 -0.000000 -0.000000
LeftFoot 4.062167 -7.086956 -9.946418
LeftToeBase -37.656206 -0.000000 0.000000
RightUpLeg -91.458791 -14.270169 5.404730
RightLeg 119.981603 -0.000000 -0.000000
RightFoot 45.527271 1.045945 0.027321
RightToeBase 37.000197 -0.000000 -0.000000
1478
root -19.050910 29.056520 -1.021108 387.438752 -73.613015 -456.060072
Spine -65.519716 -18.079465 6.218405
Head -91.302515 1.713880 12.119926
LeftShoulder -15.876852 -2.634667 47.217479
LeftArm 195.222108 -60.426214 -175.752298
LeftForeArm -13.635050 -0.000000 26.796309
LeftHand 16.167057 -0.000000 105.757046
LeftHandThumb1 -26.253704 0.000000 33.147579
RightShoulder -26.197680 48.832531 -58.235771
RightArm 17.626953 67.140042 -4.935501
RightForeArm 29.522379 -0.000000 14.274027
RightHand 17.653460 -0.000000 -108.356511
RightHandThumb1 -24.326973 -0.000000 -32.862282
LeftUpLeg 16.678285 -2.092794 23.571819
LeftLeg 36.488493 -0.000000 -0.000000
LeftFoot 4.157514 -7.103831 -10.026324
LeftToeBase -37.627457 -0.000000 0.000000
RightUpLeg -93.033788 -14.466730 5.617586
RightLeg 119.133422 -0.000000 -0.000000
RightFoot 45.448841 0.949926 -0.152434
RightToeBase 36.979454 -0.000000 -0.000000
